<svg width="12" height="15" viewBox="0 0 12 15" fill="none" xmlns="http://www.w3.org/2000/svg">
<path fill-rule="evenodd" clip-rule="evenodd" d="M3.67223 0.0145423L8.0631 3.17439e-05C10.315 -0.00741026 11.7551 1.06294 11.7646 3.17759L11.8122 13.721C11.8137 14.0527 11.689 14.3711 11.4655 14.6064C11.2421 14.8417 10.9382 14.9744 10.6125 14.9754C10.4181 14.9728 10.2269 14.9236 10.0423 14.8253L5.90481 12.4913L1.80525 14.8574C1.31143 15.1278 0.711026 15.0058 0.33315 14.558L0.26064 14.4641L0.191256 14.3486C0.100584 14.1697 0.0512062 13.9712 0.0469576 13.7599L3.42913e-05 3.34884C-0.00987607 1.14996 1.3889 0.0220881 3.67223 0.0145423ZM8.06786 1.08474L3.67711 1.09925C1.91599 1.10507 1.03153 1.81825 1.03841 3.34548L1.08522 13.7474C1.08548 13.7601 1.08684 13.7728 1.08791 13.7828C1.08963 13.7988 1.09063 13.8081 1.08529 13.8004L1.11305 13.8469C1.16081 13.9143 1.24997 13.9361 1.31215 13.9022L5.40987 11.5375C5.7153 11.3637 6.08425 11.3625 6.39273 11.5351L10.523 13.8649C10.5543 13.8815 10.5888 13.8904 10.6156 13.8908C10.6577 13.8906 10.698 13.873 10.7277 13.8418C10.7573 13.8106 10.7739 13.7684 10.7737 13.7244L10.7261 3.18109C10.7197 1.75783 9.8064 1.07899 8.06786 1.08474Z" fill="#563E1F"/>
</svg>
