<svg width="8" height="9" viewBox="0 0 8 9" fill="none" xmlns="http://www.w3.org/2000/svg">
<path fill-rule="evenodd" clip-rule="evenodd" d="M3.99787 2.24818e-05C1.83739 -0.0070237 0.0727013 1.64311 0.00216929 3.70861L0 3.83681C0.0359103 4.84923 0.394721 5.81431 1.02669 6.60943L1.17512 6.79537C1.77834 7.53169 2.49521 8.17799 3.30012 8.71069L3.49392 8.83593L3.5222 8.85725C3.79809 9.04754 4.17058 9.04754 4.44647 8.85725L4.47001 8.83867C5.10869 8.44104 5.69765 7.97382 6.22521 7.44627C7.29777 6.35633 7.94423 5.13506 7.96863 3.89474L7.96869 3.84869C7.97601 1.76936 6.26242 0.0700516 4.11748 0.00211069L3.99787 2.24818e-05ZM3.99498 0.683056C5.76616 0.688869 7.2042 2.04744 7.2576 3.7393L7.25911 3.88848C7.23859 4.92835 6.67144 5.9998 5.71199 6.97482C5.22276 7.46402 4.67424 7.89886 4.07931 8.26871L4.03966 8.29733C4.00762 8.32401 3.9601 8.32401 3.92806 8.29733L3.88952 8.2694C3.00326 7.71391 2.22541 7.01257 1.59157 6.19748C1.08101 5.55509 0.77847 4.78703 0.717574 3.9858L0.708627 3.82514C0.714642 2.12069 2.12545 0.735938 3.88239 0.684518L3.99498 0.683056ZM3.98439 2.43077C3.14608 2.43077 2.46649 3.08518 2.46649 3.89245C2.46649 4.69971 3.14608 5.35413 3.98439 5.35413C4.8227 5.35413 5.50229 4.69971 5.50229 3.89245C5.50229 3.08518 4.8227 2.43077 3.98439 2.43077ZM3.9839 3.11364C4.43058 3.11364 4.79268 3.46233 4.79268 3.89246C4.79268 4.32259 4.43058 4.67128 3.9839 4.67128C3.53722 4.67128 3.17512 4.32259 3.17512 3.89246C3.17512 3.46233 3.53722 3.11364 3.9839 3.11364Z" fill="#CE9141"/>
</svg>
