<svg width="16" height="17" viewBox="0 0 16 17" fill="none" xmlns="http://www.w3.org/2000/svg">
<path d="M12.9588 16.9998C12.054 17.0104 11.1964 16.5914 10.6411 15.8675C10.0858 15.1435 9.89664 14.1979 10.13 13.312L4.89541 10.2801C3.99089 11.1199 2.66502 11.2976 1.57613 10.725C0.487248 10.1525 -0.132721 8.95158 0.02406 7.71862C0.180841 6.48566 1.08098 5.48326 2.27752 5.20914C3.47407 4.93502 4.71217 5.44757 5.37706 6.49229L10.1291 3.73915C10.0677 3.50374 10.0351 3.26153 10.0321 3.01803C10.0202 1.60012 10.9919 0.368396 12.3594 0.0681524C13.727 -0.232091 15.1146 0.481607 15.6828 1.7774C16.251 3.07319 15.8437 4.5952 14.7073 5.42248C13.5709 6.24976 12.0175 6.15511 10.9871 5.1958L5.84366 8.17434C5.83856 8.39408 5.80825 8.61248 5.75335 8.82512L10.9871 11.8562C11.9506 10.9601 13.3843 10.8218 14.4973 11.5175C15.6104 12.2132 16.1319 13.5736 15.7741 14.8483C15.4164 16.123 14.2666 17.0017 12.9588 16.9998ZM12.9588 12.7629C12.2661 12.7629 11.7045 13.332 11.7045 14.034C11.7045 14.736 12.2661 15.305 12.9588 15.305C13.6515 15.305 14.2131 14.736 14.2131 14.034C14.2131 13.332 13.6515 12.7629 12.9588 12.7629ZM2.92451 6.83124C2.23178 6.83124 1.67022 7.40032 1.67022 8.10231C1.67022 8.8043 2.23178 9.37338 2.92451 9.37338C3.61723 9.37338 4.1788 8.8043 4.1788 8.10231C4.1788 7.40032 3.61723 6.83124 2.92451 6.83124ZM12.9588 1.74696C12.2661 1.74696 11.7045 2.31604 11.7045 3.01803C11.7045 3.72002 12.2661 4.2891 12.9588 4.2891C13.6515 4.2891 14.2131 3.72002 14.2131 3.01803C14.2131 2.31604 13.6515 1.74696 12.9588 1.74696Z" fill="black"/>
</svg>
