<svg width="23" height="22" viewBox="0 0 23 22" fill="none" xmlns="http://www.w3.org/2000/svg">
<path d="M21.275 1.11422C20.7363 0.663738 20.1049 0.337388 19.4259 0.158347C18.7468 -0.0206939 18.0367 -0.0480353 17.3458 0.0782643L13.6831 0.743348C12.8374 0.89864 12.0686 1.33371 11.5 1.97864C10.9299 1.33259 10.1589 0.897427 9.31117 0.743348L5.65417 0.0782643C4.96336 -0.0481458 4.25321 -0.0211627 3.57399 0.157304C2.89476 0.33577 2.26307 0.661357 1.72363 1.11102C1.18418 1.56068 0.75017 2.12342 0.452316 2.7594C0.154462 3.39539 4.67786e-05 4.08907 0 4.79135L0 15.1346C5.50619e-05 16.2567 0.393853 17.3431 1.11275 18.2045C1.83165 19.066 2.83006 19.6479 3.93396 19.8487L9.95804 20.9441C10.9777 21.1293 12.0223 21.1293 13.042 20.9441L19.0708 19.8487C20.1738 19.6469 21.1711 19.0646 21.8891 18.2032C22.607 17.3418 23.0001 16.256 23 15.1346V4.79135C23.0004 4.08932 22.8461 3.39582 22.5479 2.76025C22.2498 2.12468 21.8151 1.56266 21.275 1.11422ZM10.5417 19.0974C10.4612 19.0859 10.3807 19.0724 10.3002 19.0581L4.27704 17.9636C3.61461 17.8431 3.01549 17.4939 2.58413 16.9769C2.15278 16.4599 1.91657 15.808 1.91667 15.1346V4.79135C1.91667 4.02885 2.21957 3.29758 2.75873 2.75842C3.2979 2.21925 4.02917 1.91635 4.79167 1.91635C4.96521 1.91676 5.13838 1.93248 5.30917 1.96331L8.97 2.63414C9.41046 2.71474 9.8088 2.94701 10.0959 3.29064C10.383 3.63427 10.5407 4.06758 10.5417 4.51535V19.0974ZM21.0833 15.1346C21.0834 15.808 20.8472 16.4599 20.4159 16.9769C19.9845 17.4939 19.3854 17.8431 18.723 17.9636L12.6998 19.0581C12.6193 19.0724 12.5388 19.0859 12.4583 19.0974V4.51535C12.4583 4.06648 12.6157 3.63182 12.9033 3.28716C13.1909 2.9425 13.5903 2.7097 14.0319 2.62935L17.6937 1.95852C18.1084 1.88307 18.5346 1.89972 18.9421 2.0073C19.3497 2.11489 19.7286 2.31076 20.052 2.58105C20.3754 2.85135 20.6354 3.18945 20.8137 3.57141C20.9919 3.95338 21.084 4.36985 21.0833 4.79135V15.1346Z" fill="#A6A4A4"/>
</svg>
