<svg width="24" height="24" viewBox="0 0 24 24" fill="none" xmlns="http://www.w3.org/2000/svg">
<path d="M19.4211 6.75159C16.2993 8.05215 15.9031 7.58437 13.0085 7.68715V5.76608C13.0454 3.88627 12.4993 2.03836 11.4396 0.457211C11.3516 0.314092 11.2695 0.180578 11.1975 0.0528265L9.44153 0.973018C9.52257 1.1171 9.61562 1.26886 9.71468 1.43119C10.5939 2.7167 11.0448 4.22865 11.0074 5.76608V6.15894C5.55437 4.3858 -0.0657375 8.74374 0.00129966 14.4109C-0.10576 20.492 6.42186 24.9316 12.0079 22.2873C22.4727 26.5319 28.8103 11.9558 19.4211 6.75159ZM19.5451 4.31183C18.273 5.31889 16.6568 5.83707 15.0096 5.76608C14.8855 2.14199 17.1758 -0.176741 21.0049 0.010563C21.1062 1.57042 20.5842 3.10866 19.5451 4.31183Z" fill="#E36E26"/>
</svg>
