<svg width="36" height="22" viewBox="0 0 36 22" fill="none" xmlns="http://www.w3.org/2000/svg">
<path d="M25.8788 2.09849V6.4179H31.5658V5.67993L29.4093 2.10199L25.8788 2.09849ZM28.7223 15.7947C27.6863 15.7947 26.8486 16.5886 26.8486 17.5714C26.8486 18.5507 27.6863 19.3446 28.7223 19.3446C29.7583 19.3446 30.5959 18.5507 30.5959 17.5714C30.5959 16.5921 29.7583 15.7947 28.7223 15.7947ZM8.34393 15.7947C7.30793 15.7947 6.47031 16.5886 6.47031 17.5714C6.47031 18.5507 7.3116 19.3446 8.34393 19.3446C9.37625 19.3446 10.2175 18.5507 10.2175 17.5714C10.2212 16.5921 9.37993 15.7947 8.34393 15.7947ZM4.88325 13.8151H1.06254C0.474739 13.8151 0.000823855 14.2663 0.000823855 14.8224V17.0083C0.000823855 17.5644 0.478413 18.0156 1.06254 18.0156H3.14923C3.13454 17.8582 3.12352 17.7008 3.12352 17.5434C3.12719 16.0605 3.80684 14.7349 4.88325 13.8151ZM8.34393 13.6962C6.08457 13.6962 4.25136 15.4309 4.25136 17.5714C4.25136 19.7119 6.08457 21.4466 8.34393 21.4466C10.6033 21.4466 12.4365 19.7119 12.4365 17.5714C12.4402 15.4309 10.607 13.6962 8.34393 13.6962ZM8.34393 19.3481C7.30793 19.3481 6.47031 18.5542 6.47031 17.5749C6.47031 16.5956 7.3116 15.7982 8.34393 15.7982C9.37625 15.7982 10.2175 16.5921 10.2175 17.5749C10.2212 18.5507 9.37993 19.3481 8.34393 19.3481ZM28.7223 13.6962C26.4629 13.6962 24.6297 15.4309 24.6297 17.5714C24.6297 19.7119 26.4629 21.4466 28.7223 21.4466C30.9853 21.4466 32.8185 19.7119 32.8185 17.5714C32.8185 15.4309 30.9816 13.6962 28.7223 13.6962ZM28.7223 19.3481C27.6863 19.3481 26.8486 18.5542 26.8486 17.5749C26.8486 16.5956 27.6863 15.7982 28.7223 15.7982C29.7583 15.7982 30.5959 16.5921 30.5959 17.5749C30.5959 18.5507 29.7583 19.3481 28.7223 19.3481ZM23.0647 13.8151H11.9956C13.0721 14.7349 13.7517 16.064 13.7517 17.5434C13.7517 17.7043 13.7407 17.8617 13.726 18.0156H23.4027C23.388 17.8687 23.3806 17.7218 23.3806 17.5714C23.3806 16.0675 24.086 14.7244 25.1991 13.8151H23.6304H23.0647ZM34.9419 13.8151H34.8501H32.0617C33.1749 14.7279 33.8802 16.071 33.8802 17.5714C33.8802 17.7218 33.8692 17.8687 33.8545 18.0156H34.9383C35.5261 18.0156 36 17.5644 36 17.0083V14.8224C36.0037 14.2663 35.5261 13.8151 34.9419 13.8151ZM34.8464 7.43917L30.2138 0H24.6921C24.1043 0 23.6304 0.451176 23.6304 1.00728V13.8151H25.1991C26.1212 13.0631 27.3152 12.6015 28.6304 12.6015C29.942 12.6015 31.1396 13.0596 32.0617 13.8151H34.8501V7.43917H34.8464ZM31.5658 6.4179H25.8788V2.09849H29.4093L31.5658 5.67643V6.4179ZM20.5004 12.7204H22.6275V10.8877H22.6165C22.521 11.9125 21.6099 12.7204 20.5004 12.7204ZM2.12793 12.7204H20.471H20.5004C21.6099 12.7204 22.521 11.916 22.6165 10.8877C22.6238 10.8282 22.6275 10.7688 22.6275 10.7093V7.43917C22.6275 6.32696 21.6466 5.67993 20.471 5.67993L2.12793 6.41779C0.952327 6.41779 0 6.74336 0 7.85206L0.000823855 10.7058C0.000823855 11.818 0.952327 12.7204 2.12793 12.7204Z" fill="#695438"/>
</svg>
