<svg width="18" height="16" viewBox="0 0 18 16" fill="none" xmlns="http://www.w3.org/2000/svg">
<path d="M8.24615 1.35733L8.4382 1.48958C8.69138 1.66365 9.03299 1.66018 9.28228 1.48102C10.5807 0.54787 12.2611 0.276324 13.8004 0.75042C16.5784 1.60903 17.8427 4.5688 16.8681 7.47507C16.3395 8.93686 15.4645 10.275 14.3154 11.3724L13.8 11.8425C12.4112 13.0815 10.9092 14.2031 9.31462 15.1916L8.85788 15.4673L8.99726 15.5517C6.98273 14.3624 5.10176 12.9576 3.39536 11.3666C2.2524 10.275 1.37741 8.93686 0.843703 7.46041C-0.126678 4.56604 1.13208 1.60835 3.90858 0.750202C5.37468 0.297473 6.97304 0.521935 8.24615 1.35733Z" stroke="white"/>
</svg>
