<svg width="23" height="23" viewBox="0 0 23 23" fill="none" xmlns="http://www.w3.org/2000/svg">
<g clip-path="url(#clip0_1_668)">
<path d="M21.0837 17.0816V6.82547C21.5689 6.59628 21.9918 6.25378 22.3169 5.82687C22.6419 5.39996 22.8595 4.90114 22.9514 4.37249C23.0432 3.84384 23.0066 3.30086 22.8446 2.78932C22.6826 2.27779 22.4 1.81271 22.0206 1.43329C21.6412 1.05388 21.1761 0.771262 20.6646 0.609272C20.153 0.447283 19.6101 0.41067 19.0814 0.502523C18.5528 0.594376 18.0539 0.812 17.627 1.13704C17.2001 1.46209 16.8576 1.88502 16.6284 2.37018H6.37235C6.14315 1.88502 5.80066 1.46209 5.37375 1.13704C4.94683 0.812 4.44802 0.594376 3.91937 0.502523C3.39072 0.41067 2.84773 0.447283 2.3362 0.609272C1.82466 0.771262 1.35958 1.05388 0.980167 1.43329C0.600754 1.81271 0.318137 2.27779 0.156147 2.78932C-0.00584237 3.30086 -0.0424546 3.84384 0.0493982 4.37249C0.141251 4.90114 0.358875 5.39996 0.68392 5.82687C1.00896 6.25378 1.4319 6.59628 1.91706 6.82547V17.0796C1.43214 17.3089 1.00945 17.6515 0.684609 18.0783C0.359769 18.5052 0.142295 19.0039 0.0505166 19.5323C-0.0412619 20.0608 -0.00465604 20.6036 0.157249 21.115C0.319155 21.6264 0.601615 22.0914 0.980826 22.4708C1.36004 22.8501 1.82489 23.1328 2.3362 23.2949C2.84751 23.457 3.39031 23.4939 3.91884 23.4023C4.44737 23.3108 4.94615 23.0935 5.37314 22.7689C5.80013 22.4442 6.14283 22.0217 6.37235 21.5368H16.6265C16.8558 22.0218 17.1983 22.4445 17.6252 22.7693C18.052 23.0941 18.5507 23.3116 19.0792 23.4034C19.6077 23.4952 20.1505 23.4586 20.6619 23.2966C21.1733 23.1347 21.6383 22.8523 22.0176 22.4731C22.397 22.0939 22.6797 21.629 22.8418 21.1177C23.0039 20.6064 23.0408 20.0636 22.9492 19.5351C22.8577 19.0065 22.6404 18.5078 22.3157 18.0808C21.9911 17.6538 21.5685 17.3111 21.0837 17.0816ZM16.3409 19.6202H6.65985C6.55652 18.9073 6.22551 18.247 5.71619 17.7377C5.20688 17.2284 4.54655 16.8974 3.83372 16.7941V7.11297C4.54655 7.00964 5.20688 6.67863 5.71619 6.16931C6.22551 5.66 6.55652 4.99968 6.65985 4.28685H16.339C16.4424 4.99995 16.7737 5.66048 17.2834 6.16983C17.7931 6.67918 18.4539 7.01002 19.1671 7.11297V16.7921C18.4539 16.8956 17.7934 17.2269 17.2841 17.7366C16.7747 18.2462 16.4439 18.907 16.3409 19.6202ZM19.6462 2.37018C19.9305 2.37018 20.2085 2.45449 20.4449 2.61244C20.6812 2.7704 20.8655 2.9949 20.9743 3.25757C21.0831 3.52024 21.1116 3.80927 21.0561 4.08812C21.0006 4.36697 20.8637 4.62311 20.6627 4.82415C20.4616 5.02518 20.2055 5.16209 19.9267 5.21756C19.6478 5.27303 19.3588 5.24456 19.0961 5.13576C18.8334 5.02696 18.6089 4.84271 18.451 4.60631C18.293 4.36992 18.2087 4.09199 18.2087 3.80768C18.2087 3.42643 18.3602 3.0608 18.6298 2.79121C18.8993 2.52163 19.265 2.37018 19.6462 2.37018ZM3.35456 2.37018C3.63887 2.37018 3.91679 2.45449 4.15319 2.61244C4.38958 2.7704 4.57383 2.9949 4.68263 3.25757C4.79143 3.52024 4.8199 3.80927 4.76443 4.08812C4.70897 4.36697 4.57206 4.62311 4.37102 4.82415C4.16998 5.02518 3.91385 5.16209 3.635 5.21756C3.35615 5.27303 3.06712 5.24456 2.80445 5.13576C2.54178 5.02696 2.31727 4.84271 2.15932 4.60631C2.00136 4.36992 1.91706 4.09199 1.91706 3.80768C1.91706 3.42643 2.06851 3.0608 2.33809 2.79121C2.60767 2.52163 2.97331 2.37018 3.35456 2.37018ZM3.35456 21.5368C3.07025 21.5368 2.79232 21.4525 2.55592 21.2946C2.31953 21.1366 2.13528 20.9121 2.02648 20.6495C1.91768 20.3868 1.88921 20.0977 1.94468 19.8189C2.00014 19.5401 2.13705 19.2839 2.33809 19.0829C2.53913 18.8818 2.79527 18.7449 3.07411 18.6895C3.35296 18.634 3.64199 18.6625 3.90466 18.7713C4.16733 18.8801 4.39184 19.0643 4.54979 19.3007C4.70775 19.5371 4.79206 19.815 4.79206 20.0993C4.79206 20.4806 4.6406 20.8462 4.37102 21.1158C4.10144 21.3854 3.7358 21.5368 3.35456 21.5368ZM19.6462 21.5368C19.3619 21.5368 19.084 21.4525 18.8476 21.2946C18.6112 21.1366 18.4269 20.9121 18.3181 20.6495C18.2093 20.3868 18.1809 20.0977 18.2363 19.8189C18.2918 19.5401 18.4287 19.2839 18.6298 19.0829C18.8308 18.8818 19.0869 18.7449 19.3658 18.6895C19.6446 18.634 19.9337 18.6625 20.1963 18.7713C20.459 18.8801 20.6835 19.0643 20.8415 19.3007C20.9994 19.5371 21.0837 19.815 21.0837 20.0993C21.0837 20.4806 20.9323 20.8462 20.6627 21.1158C20.3931 21.3854 20.0275 21.5368 19.6462 21.5368Z" fill="#A6A4A4"/>
</g>
<defs>
<clipPath id="clip0_1_668">
<rect width="23" height="23" fill="white"/>
</clipPath>
</defs>
</svg>
