<svg width="24" height="23" viewBox="0 0 24 23" fill="none" xmlns="http://www.w3.org/2000/svg">
<path fill-rule="evenodd" clip-rule="evenodd" d="M22.4944 6.50849C23.3392 7.1054 23.8575 7.99214 23.9457 8.95709L23.9583 9.18826V18.5145C23.9583 20.9183 21.8765 22.8735 19.2675 23H16.7582C15.559 22.9781 14.5894 22.1271 14.5011 21.0575L14.4885 20.8953V17.6071C14.4885 17.2494 14.1972 16.9515 13.8076 16.8929L13.6941 16.8814H10.326C9.92379 16.8929 9.59594 17.1574 9.5455 17.5024L9.53289 17.6071V20.8849C9.53289 20.9528 9.51902 21.0333 9.50768 21.0908L9.49507 21.115L9.48119 21.1943C9.33114 22.1731 8.44846 22.9195 7.35143 22.9897L7.1875 23H4.93037C2.29496 23 0.138706 21.115 0 18.7446V9.18826C0.0113487 8.20951 0.479167 7.30092 1.26096 6.66836L9.11678 0.906278C10.7182 -0.254189 12.9627 -0.300194 14.6133 0.768264L14.8163 0.906278L22.4944 6.50849ZM22.1902 18.6983L22.2041 18.5142V9.19831C22.1902 8.70491 21.9645 8.24371 21.5736 7.89983L21.4097 7.77216L13.7178 2.1596C12.7595 1.45803 11.3976 1.42468 10.3889 2.03309L10.1985 2.1596L2.5318 7.79631C2.09172 8.09419 1.82692 8.54274 1.76387 9.01429L1.75 9.19831V18.5142C1.75 20.0439 3.0614 21.2975 4.72714 21.3895H7.18602C7.46343 21.3895 7.70302 21.2182 7.73958 20.9766L7.76606 20.7696L7.77867 20.711V17.6068C7.77867 16.3762 8.81267 15.3756 10.1367 15.2824H13.6926C15.0406 15.2824 16.1376 16.2267 16.2397 17.4343V20.895C16.2397 21.1365 16.4289 21.3447 16.6811 21.3895H19.0252C20.7149 21.3895 22.0894 20.2061 22.1902 18.6983Z" fill="#A6A4A4"/>
</svg>
