<svg width="13" height="18" viewBox="0 0 13 18" fill="none" xmlns="http://www.w3.org/2000/svg">
<path d="M3.87314 0.777544L9.0555 0.757543C11.1075 0.749624 12.1851 1.5926 12.1919 3.36084L12.2425 16.4598C12.2427 16.5144 12.2232 16.5669 12.1882 16.6057C12.1532 16.6445 12.1056 16.6664 12.0559 16.6666C12.0242 16.666 11.9835 16.655 11.9466 16.6344L7.07289 13.7418C6.70887 13.5274 6.2734 13.5291 5.91281 13.7452L1.07508 16.6849C1.00168 16.727 0.896453 16.7001 0.840116 16.6163L0.807379 16.5586C0.817622 16.5741 0.808103 16.5338 0.807321 16.4927L0.757531 3.56943C0.750208 1.67201 1.7945 0.785566 3.87314 0.777544Z" stroke="black" stroke-width="1.5"/>
</svg>
