<svg width="23" height="24" viewBox="0 0 23 24" fill="none" xmlns="http://www.w3.org/2000/svg">
<path d="M23 9.3231V18.2126C22.9985 19.483 22.4932 20.7009 21.5949 21.5991C20.6966 22.4974 19.4787 23.0027 18.2083 23.0043H17.25C16.9958 23.0043 16.7521 22.9033 16.5724 22.7236C16.3926 22.5439 16.2917 22.3001 16.2917 22.0459C16.2917 21.7918 16.3926 21.548 16.5724 21.3683C16.7521 21.1886 16.9958 21.0876 17.25 21.0876H18.2083C18.9708 21.0876 19.7021 20.7847 20.2413 20.2455C20.7804 19.7064 21.0833 18.9751 21.0833 18.2126V9.3231C21.0834 8.85248 20.9679 8.38905 20.747 7.97349C20.5261 7.55794 20.2065 7.20296 19.8164 6.93973L13.1081 2.41352C12.6341 2.09037 12.0737 1.91754 11.5 1.91754C10.9263 1.91754 10.3659 2.09037 9.89192 2.41352L3.18359 6.93973C2.79347 7.20296 2.47394 7.55794 2.25304 7.97349C2.03215 8.38905 1.91664 8.85248 1.91667 9.3231V18.2126C1.91667 18.9751 2.21957 19.7064 2.75874 20.2455C3.29791 20.7847 4.02917 21.0876 4.79167 21.0876H5.75C6.00417 21.0876 6.24793 21.1886 6.42765 21.3683C6.60737 21.548 6.70834 21.7918 6.70834 22.0459C6.70834 22.3001 6.60737 22.5439 6.42765 22.7236C6.24793 22.9033 6.00417 23.0043 5.75 23.0043H4.79167C3.52131 23.0027 2.30341 22.4974 1.40513 21.5991C0.506849 20.7009 0.00152545 19.483 3.75386e-06 18.2126V9.3231C-0.000978418 8.53891 0.190788 7.7665 0.558429 7.07384C0.92607 6.38117 1.45832 5.78947 2.10834 5.35081L8.81667 0.823642C9.60755 0.286931 10.5413 0 11.4971 0C12.4529 0 13.3867 0.286931 14.1776 0.823642L20.8859 5.35081C21.5366 5.78924 22.0696 6.38074 22.4383 7.07336C22.8069 7.76597 22.9998 8.53851 23 9.3231ZM18.2083 14.386C18.2108 15.2672 18.0384 16.1401 17.7012 16.9542C17.364 17.7683 16.8686 18.5074 16.2438 19.1288L12.8752 22.4235C12.5065 22.7806 12.0133 22.9802 11.5 22.9802C10.9867 22.9802 10.4936 22.7806 10.1248 22.4235L6.76392 19.1364C5.9823 18.3573 5.40499 17.3973 5.08318 16.3416C4.76137 15.2859 4.705 14.1671 4.91906 13.0844C5.13312 12.0017 5.61101 10.9885 6.31035 10.1347C7.00968 9.28093 7.90888 8.61285 8.9282 8.18974C9.94753 7.76663 11.0555 7.60155 12.1539 7.70913C13.2523 7.81671 14.3072 8.19363 15.2251 8.80647C16.1429 9.41932 16.8954 10.2492 17.4158 11.2224C17.9362 12.1957 18.2084 13.2823 18.2083 14.386ZM16.2917 14.386C16.2917 13.598 16.0974 12.8222 15.7259 12.1273C15.3545 11.4323 14.8174 10.8397 14.1623 10.4019C13.5071 9.9641 12.7541 9.69463 11.9699 9.61735C11.1858 9.54007 10.3946 9.65737 9.66664 9.95886C8.93862 10.2603 8.2962 10.7367 7.79626 11.3458C7.29633 11.9549 6.95431 12.6778 6.8005 13.4506C6.6467 14.2234 6.68585 15.0223 6.9145 15.7763C7.14315 16.5304 7.55423 17.2164 8.11134 17.7737L11.4655 21.0531L14.8963 17.766C15.3406 17.3227 15.6927 16.7958 15.9322 16.2156C16.1717 15.6355 16.2939 15.0136 16.2917 14.386ZM14.375 14.3793C14.375 14.9479 14.2064 15.5037 13.8905 15.9765C13.5746 16.4493 13.1256 16.8178 12.6002 17.0354C12.0749 17.253 11.4968 17.31 10.9391 17.199C10.3814 17.0881 9.86915 16.8143 9.46707 16.4122C9.065 16.0101 8.79118 15.4978 8.68025 14.9402C8.56931 14.3825 8.62625 13.8044 8.84385 13.2791C9.06145 12.7537 9.42995 12.3047 9.90274 11.9888C10.3755 11.6729 10.9314 11.5043 11.5 11.5043C12.2625 11.5043 12.9938 11.8072 13.5329 12.3463C14.0721 12.8855 14.375 13.6168 14.375 14.3793Z" fill="#A6A4A4"/>
</svg>
