<svg width="4" height="4" viewBox="0 0 4 4" fill="none" xmlns="http://www.w3.org/2000/svg">
<path d="M3.91033 3.16381L3.29259 2.5446C3.16955 2.42178 2.96579 2.42551 2.83846 2.55317L2.52724 2.86503C2.50758 2.85416 2.48723 2.84282 2.46583 2.83078C2.2693 2.72164 2.00031 2.57205 1.71726 2.28815C1.43337 2.00365 1.28397 1.73364 1.17475 1.53653C1.16322 1.51565 1.15218 1.49552 1.14127 1.4764L1.35014 1.26736L1.45283 1.16431C1.58036 1.03647 1.58387 0.832301 1.46112 0.709119L0.843382 0.0898433C0.720627 -0.0331664 0.516775 -0.0294347 0.389252 0.0984125L0.215152 0.273909L0.21991 0.278642C0.161532 0.353301 0.112749 0.439407 0.0764469 0.532264C0.042983 0.620651 0.0221485 0.704995 0.0126219 0.789513C-0.0689463 1.46726 0.240066 2.08668 1.07869 2.92721C2.23791 4.08898 3.1721 4.00122 3.2124 3.99693C3.30017 3.98642 3.38429 3.9654 3.46978 3.93212C3.56162 3.89616 3.64748 3.84734 3.72192 3.78896L3.72572 3.79234L3.9021 3.61924C4.02936 3.49142 4.03302 3.28719 3.91033 3.16381Z" fill="white"/>
</svg>
