<svg width="32" height="32" viewBox="0 0 32 32" fill="none" xmlns="http://www.w3.org/2000/svg">
<path d="M0.468172 14.8709L14.8327 0.470221C15.1326 0.16973 15.5395 0.000601667 15.964 1.60219e-06C16.3885 -0.000598463 16.7959 0.167379 17.0966 0.467021L31.5299 14.8677C31.6789 15.0164 31.7972 15.1929 31.8778 15.3873C31.9585 15.5817 32 15.7901 32 16.0006C32 16.2111 31.9585 16.4195 31.8778 16.6139C31.7972 16.8083 31.6789 16.9848 31.5299 17.1335L17.0966 31.5342C16.4727 32.1566 15.4551 32.155 14.8327 31.531L0.468172 17.1303C0.319752 16.982 0.202011 16.8059 0.121679 16.612C0.0413475 16.4182 0 16.2104 0 16.0006C0 15.7908 0.0413475 15.583 0.121679 15.3892C0.202011 15.1953 0.319752 15.0192 0.468172 14.8709ZM11.1992 22.4009H14.3991V16.0006H19.199V19.2008L23.9989 14.4005L19.199 9.60028V12.8004H11.1992V22.4009Z" fill="#563E1F"/>
</svg>
