<svg width="27" height="23" viewBox="0 0 27 23" fill="none" xmlns="http://www.w3.org/2000/svg">
<path d="M21.3867 5.70008V7.6715H18.2583V5.70008C18.2583 5.27156 18.6012 4.92864 19.0297 4.92864H19.4153V3.0001C19.4153 2.52869 19.0297 2.18578 18.601 2.18578C18.3867 2.18578 18.1725 1.97153 18.1725 1.75727C18.1725 1.50012 18.3867 1.32875 18.601 1.32875C19.5438 1.32875 20.2724 2.10019 20.2724 3.00011V4.92865H20.658C21.0438 4.92865 21.3867 5.27158 21.3867 5.70009L21.3867 5.70008Z" fill="#695438"/>
<path d="M26.5715 14.9998H25.7144V11.9142C25.7144 10.0714 24.2144 8.57146 22.3717 8.57146L14.4861 8.57125L14.0147 3.08575C14.7433 2.95727 15.3005 2.31431 15.3005 1.54287C15.3005 0.685831 14.6148 0 13.7576 0L2.40097 0.00020328C1.54393 0.00020328 0.8581 0.685879 0.8581 1.54308C0.8581 2.27163 1.3724 2.91443 2.05808 3.04307L1.54379 12.2567C2.61528 11.3997 3.98658 10.8853 5.44369 10.8853C8.91511 10.8853 11.7863 13.7138 11.7863 17.1853C11.7863 17.4853 11.7863 17.8281 11.7005 18.1281H15.0432C15.2146 15.471 17.4003 13.3711 20.1002 13.3711C22.8002 13.3711 24.9859 15.471 25.1573 18.1281H26.5715C26.7857 18.1281 27 17.9138 27 17.6996V15.3854C27.0002 15.171 26.8288 14.9996 26.5717 14.9996L26.5715 14.9998ZM4.20064 8.95691L4.54357 2.61431H11.4862L11.7004 4.79998L12.0861 8.95707L4.20064 8.95691Z" fill="#695438"/>
<path d="M5.48346 14.1426C3.76922 14.1426 2.39787 15.514 2.39787 17.2282C2.39787 18.9424 3.76922 20.3138 5.48346 20.3138C7.1977 20.3138 8.56905 18.9424 8.56905 17.2282C8.52616 15.5141 7.15482 14.1426 5.48346 14.1426Z" fill="#695438"/>
<path d="M5.48551 11.7858C2.48552 11.7858 0 14.2286 0 17.2286C0 20.2286 2.4428 22.7141 5.48551 22.7141C8.48549 22.7141 10.971 20.2713 10.971 17.2286C10.9283 14.2286 8.48549 11.7858 5.48551 11.7858ZM5.48551 21.1711C3.29984 21.1711 1.54267 19.414 1.54267 17.2283C1.54267 15.0426 3.29984 13.2855 5.48551 13.2855C7.67117 13.2855 9.42835 15.0426 9.42835 17.2283C9.38545 19.4142 7.62829 21.1711 5.48551 21.1711Z" fill="#695438"/>
<path d="M20.0989 14.2712C17.7847 14.2712 15.8989 16.1568 15.8989 18.4712C15.8989 20.7853 17.7845 22.6711 20.0989 22.6711C22.413 22.6711 24.2989 20.7855 24.2989 18.4712C24.2989 16.1568 22.4559 14.2712 20.0989 14.2712ZM20.0989 20.9994C18.7275 20.9994 17.6132 19.8852 17.6132 18.5137C17.6132 17.1423 18.7273 16.0279 20.0989 16.0279C21.4702 16.0279 22.5846 17.1421 22.5846 18.5137C22.6273 19.8423 21.5131 20.9994 20.0989 20.9994Z" fill="#695438"/>
<path d="M20.0977 16.8425C19.1978 16.8425 18.4692 17.571 18.4692 18.471C18.4692 19.3709 19.1978 20.0994 20.0977 20.0994C20.9976 20.0994 21.7262 19.3709 21.7262 18.471C21.7691 17.571 21.0405 16.8425 20.0977 16.8425Z" fill="#695438"/>
</svg>
