<svg width="9" height="10" viewBox="0 0 9 10" fill="none" xmlns="http://www.w3.org/2000/svg">
<path fill-rule="evenodd" clip-rule="evenodd" d="M4.44209 2.49798e-05C2.04155 -0.00780414 0.0807795 1.82568 0.00241033 4.12069L0 4.26314C0.0399005 5.38805 0.438581 6.46036 1.14078 7.34383L1.30569 7.55044C1.97594 8.36858 2.77246 9.08669 3.66682 9.67858L3.88215 9.81774L3.91357 9.84142C4.22011 10.0529 4.634 10.0529 4.94054 9.84142L4.9667 9.82079C5.67635 9.37897 6.33075 8.85984 6.91693 8.27367C8.10867 7.06262 8.82696 5.70564 8.85407 4.3275L8.85414 4.27633C8.86227 1.96597 6.95827 0.0778354 4.57499 0.00234522L4.44209 2.49798e-05ZM4.43662 0.758902C6.4046 0.765361 8.00243 2.27489 8.06176 4.15474L8.06344 4.32049C8.04064 5.47591 7.41047 6.66642 6.34441 7.74977C5.80082 8.29333 5.19135 8.77649 4.53032 9.18744L4.48626 9.21923C4.45066 9.24889 4.39786 9.24889 4.36226 9.21923L4.31944 9.18821C3.3347 8.57099 2.47042 7.79172 1.76615 6.88606C1.19886 6.17229 0.862702 5.31889 0.795039 4.42863L0.785098 4.25012C0.791782 2.35628 2.35935 0.81766 4.31151 0.760527L4.43662 0.758902ZM4.42622 2.70082C3.49476 2.70082 2.73966 3.42795 2.73966 4.32491C2.73966 5.22188 3.49476 5.94901 4.42622 5.94901C5.35769 5.94901 6.11279 5.22188 6.11279 4.32491C6.11279 3.42795 5.35769 2.70082 4.42622 2.70082ZM4.42341 3.45959C4.91972 3.45959 5.32206 3.84703 5.32206 4.32496C5.32206 4.80288 4.91972 5.19032 4.42341 5.19032C3.9271 5.19032 3.52476 4.80288 3.52476 4.32496C3.52476 3.84703 3.9271 3.45959 4.42341 3.45959Z" fill="#E26B26"/>
</svg>
